<?xml version="1.0" standalone="no"?><!DOCTYPE svg PUBLIC "-//W3C//DTD SVG 1.1//EN" "http://www.w3.org/Graphics/SVG/1.1/DTD/svg11.dtd"><svg width="600" height="519.6152422706632" version="1.1" xmlns="http://www.w3.org/2000/svg" xmlns:xlink="http://www.w3.org/1999/xlink" style="height:519.609px;width:600px;perspective-origin:300px 259.797px;transform-origin:300px 259.797px;"><path class="path" d="M 395 354 L 423 307 L 477 402 L 423 402 Z " style="height:auto;overflow-x:visible;overflow-y:visible;width:auto;perspective-origin:0px 0px;transform-origin:0px 0px;fill:rgb(255, 255, 255);fill-rule:evenodd;stroke:rgb(0, 0, 0);stroke-width:0px;"/><path class="path" d="M 273 47 L 41 449 L 68 496 L 273 142 L 341 260 L 395 260 Z " style="height:auto;overflow-x:visible;overflow-y:visible;width:auto;perspective-origin:0px 0px;transform-origin:0px 0px;fill:rgb(255, 255, 255);fill-rule:evenodd;stroke:rgb(0, 0, 0);stroke-width:0px;"/><path class="path" d="M 95 449 L 68 496 L 532 496 L 559 449 L 150 449 L 205 354 L 395 354 L 423 307 L 232 307 L 300 189 L 273 142 Z " style="height:auto;overflow-x:visible;overflow-y:visible;width:auto;perspective-origin:0px 0px;transform-origin:0px 0px;fill:rgb(136, 136, 136);fill-rule:evenodd;stroke:rgb(0, 0, 0);stroke-width:0px;"/><path class="path" d="M 150 449 L 177 402 L 477 402 L 423 307 L 232 307 L 259 260 L 395 260 L 273 47 L 327 47 L 559 449 Z " style="height:auto;overflow-x:visible;overflow-y:visible;width:auto;perspective-origin:0px 0px;transform-origin:0px 0px;fill:rgb(204, 204, 204);fill-rule:evenodd;stroke:rgb(0, 0, 0);stroke-width:0px;"/></svg>
